<svg xmlns="http://www.w3.org/2000/svg" xmlns:xlink="http://www.w3.org/1999/xlink" version="1.1" x="0px" y="0px" viewBox="0 0 100 125" enable-background="new 0 0 100 100" xml:space="preserve"><path d="M49.95,5C25.178,5,5,25.078,5,49.95C5,74.722,25.178,94.9,49.95,94.9c9.589,0,18.479-2.997,25.671-8.091  c-0.499-0.799-0.899-1.398-1.498-2.198c-5.494-7.791-11.387-15.183-18.08-21.876c-0.599-0.599-1.099-1.099-1.698-1.698  c-0.999-0.999-1.998-2.198-2.797-3.396c-0.799-1.299-1.598-2.597-2.397-3.996c4.495-3.196,10.888-8.091,13.385-10.588  c1.199,1.199,2.497,2.497,3.596,3.696c0.899,0.899,1.698,2.098,2.497,3.296c4.095,6.892,8.79,13.385,14.084,19.478  c1.498,1.798,3.097,3.496,4.695,5.294C92.103,67.729,95,59.138,95,49.949C94.9,25.078,74.723,5,49.95,5z M47.653,53.346  c-0.4,0.2-0.699,0.1-0.999-0.3c-1.598-1.598-3.296-3.196-4.895-4.795c-0.699-0.699-1.398-0.899-2.297-0.699  c-3.596,0.699-6.892,2.098-9.689,4.395c-2.597,2.297-3.796,5.794-3.796,5.794c-0.1,0.3-0.2,0.599-0.4,0.799l-4.495,3.896  c-1.898,1.199-3.596-0.499-3.596-0.499c-2.597-2.397-4.994-4.895-7.192-7.791c-0.4-0.4-0.699-0.899-0.899-1.299  c-0.599-1.398,0.599-2.597,0.599-2.597l4.395-3.996c0.699-0.599,1.299-0.899,2.198-0.899c0,0,2.497-0.499,5.194-1.998  c3.396-2.397,3.896-2.697,6.293-6.493c0.499-0.699,0.799-1.398,0.999-2.098c0.799-1.998,1.998-3.496,3.696-4.595  c2.997-1.998,6.093-3.996,9.29-5.594c2.997-1.498,6.193-2.597,9.39-3.496c1.798-0.4,3.596-0.4,5.394-0.499  c5.594-0.1,10.988,0.799,16.282,2.297c4.295,1.199,8.391,2.697,12.486,4.595c0.699,0.1,1.299,0.3,1.898,0.499  c0.799,0.3,1.498,1.299,1.798,2.198c-0.2,0.1-0.499,0.3-0.799,0.4c0.3,0.2,0.499,0.4,0.799,0.599c-0.1,0.3-0.2,0.499-0.4,0.799  c-0.2,0.4-0.599,0.599-0.999,0.499c-0.4,0-0.799-0.1-1.099-0.2c-4.195-1.099-8.391-1.998-12.686-2.597  c-3.596-0.499-7.292-0.699-10.888-0.499c-1.099,0.1-2.397,0.2-3.396,0.699c-0.799,0.4-1.398,0.799-1.998,1.398  c-0.4,0.499-0.599,0.899-0.499,1.498c0.2,0.899,0.499,1.898,0.999,2.697c1.099,1.698,2.198,3.396,3.296,4.994  c1.099,1.299,0.3,1.998,0.3,1.998L47.653,53.346z"/><text x="0" y="115" fill="#000000" font-size="5px" font-weight="bold" font-family="'Helvetica Neue', Helvetica, Arial-Unicode, Arial, Sans-serif">Created by Wes Breazell</text><text x="0" y="120" fill="#000000" font-size="5px" font-weight="bold" font-family="'Helvetica Neue', Helvetica, Arial-Unicode, Arial, Sans-serif">from the Noun Project</text></svg>